<?xml version="1.0" encoding="UTF-8"?>
<svg version="1.1" xmlns="http://www.w3.org/2000/svg" width="1024" height="1024">
<path d="M0 0 C4.02926878 8.05853757 2.14664038 20.98632177 2.1328125 29.8125 C2.13348896 31.1976727 2.13446181 32.58284528 2.13571167 33.96801758 C2.13717256 36.84880725 2.13508654 39.72956558 2.13037109 42.61035156 C2.12467481 46.26431271 2.12796254 49.91820035 2.13394356 53.57215881 C2.13759304 56.42582736 2.13639066 59.27947908 2.13381577 62.13314819 C2.13284399 64.12302703 2.13582901 66.11290657 2.13894653 68.1027832 C2.0822512 90.3766232 2.0822512 90.3766232 -1 95 C-3.625 95.1875 -3.625 95.1875 -6 95 C-6.23074219 93.89785156 -6.46148438 92.79570312 -6.69921875 91.66015625 C-12.27238415 65.50668943 -19.53104441 39.77978461 -43 24 C-54.93945788 16.85053891 -68.03827399 12.52438408 -82 12 C-82.95777344 11.9484375 -83.91554688 11.896875 -84.90234375 11.84375 C-105.22083619 11.24097643 -125.36104331 17.16515312 -140.39453125 31.2421875 C-150.82211052 42.06750197 -155.82016962 55.05609573 -156 70 C-155.27967221 81.19175962 -152.0887796 91.77964375 -144.2734375 100.08984375 C-135.03159336 107.85489836 -123.44723544 112.36935689 -112.03515625 115.84765625 C-107.42651227 117.25696199 -102.82064555 118.67427157 -98.21875 120.10546875 C-97.11015625 120.44900391 -96.0015625 120.79253906 -94.859375 121.14648438 C-92.58796558 121.85035718 -90.31714671 122.5561381 -88.046875 123.26367188 C-86.94859375 123.60333984 -85.8503125 123.94300781 -84.71875 124.29296875 C-83.24825195 124.74965942 -83.24825195 124.74965942 -81.74804688 125.21557617 C-79.17702931 125.94946738 -76.62853444 126.51748302 -74 127 C-74.33 127.66 -74.66 128.32 -75 129 C-109.34548977 129.16976858 -143.66210147 128.68643241 -178 128 C-178.66 125.36 -179.32 122.72 -180 120 C-180.99 120 -181.98 120 -183 120 C-182.67 119.01 -182.34 118.02 -182 117 C-182.42347322 115.40087037 -182.91507664 113.81959197 -183.4375 112.25 C-188.95040466 91.19376694 -184.41802698 67.81642728 -174 49 C-170.98625784 44.08618175 -167.55883201 39.52836699 -164 35 C-163.42636719 34.24203125 -162.85273437 33.4840625 -162.26171875 32.703125 C-148.32088192 15.40680139 -124.65898456 4.65337987 -103 2 C-76.88027454 -0.75957787 -50.12527809 2.24476733 -27.34375 16.21875 C-23.32771224 18.42560451 -23.32771224 18.42560451 -19 18 C-16.56195966 15.76704667 -16.56195966 15.76704667 -14.4375 12.8125 C-13.69371094 11.84957031 -12.94992187 10.88664062 -12.18359375 9.89453125 C-11.10271484 8.46173828 -11.10271484 8.46173828 -10 7 C-4.60252809 0 -4.60252809 0 0 0 Z " fill="#040404" transform="translate(738,320)"/>
<path d="M0 0 C2.76004381 0.92222618 5.38713221 1.59794867 8.25 2.0859375 C8.25 2.7459375 8.25 3.4059375 8.25 4.0859375 C9.4565625 4.42625 9.4565625 4.42625 10.6875 4.7734375 C14.51068531 6.18197946 17.73638761 8.03700417 21.19921875 10.16015625 C23.3746018 11.42137783 23.3746018 11.42137783 26.25 10.0859375 C26.91 10.0859375 27.57 10.0859375 28.25 10.0859375 C28.58 9.0959375 28.91 8.1059375 29.25 7.0859375 C29.91 7.0859375 30.57 7.0859375 31.25 7.0859375 C31.62898438 6.24482422 31.62898438 6.24482422 32.015625 5.38671875 C34.34858775 1.03825337 37.49698093 -2.71704625 41.25 -5.9140625 C44.75 -5.9765625 44.75 -5.9765625 47.25 -4.9140625 C48.46931078 -1.25613017 48.33767313 2.05889518 48.27172852 5.86206055 C48.26212097 6.65253784 48.25251343 7.44301514 48.24261475 8.25744629 C48.20962676 10.87094027 48.16929365 13.484267 48.12890625 16.09765625 C48.10460494 17.90940257 48.08076138 19.72115507 48.05735779 21.53291321 C47.99451798 26.30216525 47.92545099 31.07130769 47.85510254 35.8404541 C47.78441821 40.70673632 47.71960183 45.57309627 47.65429688 50.43945312 C47.52528585 59.98836668 47.38969844 69.53717474 47.25 79.0859375 C47.91 79.4159375 48.57 79.7459375 49.25 80.0859375 C48.59 80.0859375 47.93 80.0859375 47.25 80.0859375 C47.1675 80.8696875 47.085 81.6534375 47 82.4609375 C46.25 85.0859375 46.25 85.0859375 44.375 86.4609375 C42.25 87.0859375 42.25 87.0859375 39.25 86.0859375 C39.25 84.1059375 39.25 82.1259375 39.25 80.0859375 C38.59 79.7559375 37.93 79.4259375 37.25 79.0859375 C37.01171875 77.36328125 37.01171875 77.36328125 36.9375 75.0234375 C35.56080986 58.66649189 27.78280271 42.4355873 17.25 30.0859375 C16.30640625 28.85230469 16.30640625 28.85230469 15.34375 27.59375 C10.27703299 21.52503299 3.37152857 16.49833661 -3.75 13.0859375 C-4.41 13.4159375 -5.07 13.7459375 -5.75 14.0859375 C-5.75 13.0959375 -5.75 12.1059375 -5.75 11.0859375 C-9.07302242 10.04933095 -12.40750636 9.05789947 -15.75 8.0859375 C-16.6884375 7.81136719 -17.626875 7.53679687 -18.59375 7.25390625 C-40.09828405 1.38640569 -64.46317804 3.55445498 -84.125 14.3359375 C-98.34910685 23.29114182 -107.35366229 35.09302614 -111.3359375 51.5 C-113.45073759 64.70752507 -111.55527967 79.01874991 -103.75 90.0859375 C-101.5 92.8359375 -101.5 92.8359375 -98.75 95.0859375 C-98.22148437 95.55515625 -97.69296875 96.024375 -97.1484375 96.5078125 C-85.45480863 106.16127633 -69.33267741 109.59499172 -55.1640625 114.03515625 C-50.29074626 115.56950603 -45.50812734 117.2263716 -40.75 119.0859375 C-40.75 119.4159375 -40.75 119.7459375 -40.75 120.0859375 C-52.80654515 120.17855899 -64.86300586 120.24966274 -76.91983414 120.29318619 C-82.51813561 120.31407378 -88.11619394 120.34241314 -93.71435547 120.38769531 C-99.11544947 120.43111077 -104.51630938 120.45506578 -109.91756439 120.46544647 C-111.97970007 120.47284554 -114.04182274 120.48729397 -116.10385895 120.50885773 C-118.98911876 120.53783428 -121.87340749 120.54189588 -124.75878906 120.54003906 C-125.61402664 120.55442017 -126.46926422 120.56880127 -127.35041809 120.58361816 C-133.11575956 120.54338843 -133.11575956 120.54338843 -136.2711792 118.26751709 C-138.3048099 115.26747325 -138.40795663 112.66778497 -138.75 109.0859375 C-139.26086237 107.00013675 -139.7820245 104.91683656 -140.3125 102.8359375 C-145.05699156 80.6871477 -140.17054263 58.60043088 -128.4375 39.3984375 C-112.75531575 15.99526538 -90.95159343 0.76066562 -63.39599609 -4.76074219 C-41.91659016 -8.79707863 -20.64690625 -7.09737402 0 0 Z " fill="#050505" transform="translate(402.75,328.9140625)"/>
<path d="M0 0 C14.85 0 29.7 0 45 0 C48.2922241 32.92224104 42.48405127 65.05037589 21.16821289 91.27807617 C3.41243806 112.19511656 -20.88528183 124.56638677 -48.09765625 127.68359375 C-78.14908488 130.12019607 -107.14550343 122.52687349 -130.97265625 103.41796875 C-131.49730469 102.97066406 -132.02195312 102.52335938 -132.5625 102.0625 C-134.8974807 99.82784495 -134.8974807 99.82784495 -138 99 C-138 98.34 -138 97.68 -138 97 C-142.00701966 99.10713965 -144.19509757 101.21978941 -146.75 104.9375 C-147.43191406 105.90300781 -148.11382812 106.86851562 -148.81640625 107.86328125 C-149.93138611 109.46494284 -151.04629935 111.06665157 -152.15966797 112.66943359 C-153.3226587 114.33091766 -154.50361465 115.97836384 -155.6875 117.625 C-156.39261719 118.62789062 -157.09773438 119.63078125 -157.82421875 120.6640625 C-160.25213285 123.270692 -161.50590961 123.7429916 -165 124 C-168.14540071 120.89187778 -168.35552019 118.14744758 -168.39547729 113.8352356 C-168.38783356 113.01433441 -168.38018982 112.19343323 -168.37231445 111.34765625 C-168.37596512 110.47567596 -168.37961578 109.60369568 -168.38337708 108.70529175 C-168.39148018 105.82416279 -168.3778744 102.94359666 -168.36328125 100.0625 C-168.36276261 98.05997722 -168.36328045 96.05745392 -168.36479187 94.05493164 C-168.36470216 89.85848386 -168.35427455 85.66222823 -168.33618164 81.46582031 C-168.31349461 76.0854333 -168.31295051 70.70532707 -168.31969929 65.3249054 C-168.32304 61.18995669 -168.31640722 57.05507205 -168.30657005 52.9201355 C-168.30271954 50.93619115 -168.30156922 48.95223968 -168.3031559 46.96829224 C-168.30352656 44.19617116 -168.2909061 41.42441069 -168.2746582 38.65234375 C-168.27713562 37.83144257 -168.27961304 37.01054138 -168.28216553 36.1647644 C-168.24612608 32.31405051 -168.19551091 29.25970873 -166 26 C-164.35 26.33 -162.7 26.66 -161 27 C-160.76925781 27.73935791 -160.53851563 28.47871582 -160.30078125 29.24047852 C-154.18086878 48.67513138 -147.96675732 65.03364673 -135 81 C-134.42636719 81.72703125 -133.85273438 82.4540625 -133.26171875 83.203125 C-119.44715518 99.95204694 -97.53611508 112.71007696 -75.91796875 115.7265625 C-74.95503906 115.81679688 -73.99210937 115.90703125 -73 116 C-72.02861084 116.09619629 -72.02861084 116.09619629 -71.03759766 116.19433594 C-47.89740896 118.36648929 -24.87869007 114.21914885 -6.51953125 99.23828125 C7.82830036 86.91766071 15.76501077 71.7431449 17.73999023 52.89746094 C18.80103326 38.55739592 14.90160899 24.02053283 7 12 C6.01 11.505 6.01 11.505 5 11 C4.525625 10.195625 4.05125 9.39125 3.5625 8.5625 C2.10335955 5.7644028 2.10335955 5.7644028 -1 4 C-0.67 2.68 -0.34 1.36 0 0 Z " fill="#050505" transform="translate(422,528)"/>
<path d="M0 0 C5.68767867 25.75380903 -4.62776481 55.29672242 -18 77 C-30.4611105 94.80496433 -46.45263141 107.01710031 -66 116 C-66.92554688 116.42539062 -67.85109375 116.85078125 -68.8046875 117.2890625 C-93.25206591 127.26603001 -123.60935349 124.69781482 -147.58984375 114.94921875 C-160.78316625 109.27292231 -171.85499275 100.94825176 -183 92 C-188.96215774 98.92625133 -194.56026476 105.90985751 -199.59912109 113.54150391 C-202.4882473 117.77368337 -202.4882473 117.77368337 -205.1640625 118.95703125 C-207 119 -207 119 -209 118 C-210.49059192 114.21046593 -210.14768961 110.06402499 -210.14526367 106.05371094 C-210.14862228 105.25643082 -210.1519809 104.4591507 -210.15544128 103.63771057 C-210.16493569 101.0032495 -210.16689383 98.36885212 -210.16796875 95.734375 C-210.17118305 93.8983762 -210.17454726 92.06237766 -210.17805481 90.22637939 C-210.18404278 86.37633674 -210.18589512 82.52631652 -210.18530273 78.67626953 C-210.18520129 73.75591029 -210.19883711 68.83569591 -210.21607494 63.91537094 C-210.22722533 60.12169746 -210.22922099 56.32805861 -210.22869301 52.53437042 C-210.22986917 50.72118888 -210.23427045 48.90800634 -210.24202538 47.094841 C-210.25188398 44.55108176 -210.24892391 42.00763201 -210.24291992 39.46386719 C-210.25134918 38.35226982 -210.25134918 38.35226982 -210.25994873 37.21821594 C-210.22995597 32.18717366 -209.59020813 27.79308174 -208 23 C-207.01 22.67 -206.02 22.34 -205 22 C-200.92186048 25.32261052 -199.90661756 28.89136738 -198.6875 33.8125 C-196.35391862 42.39041059 -193.11236774 50.13286172 -189 58 C-188.67596191 58.62068359 -188.35192383 59.24136719 -188.01806641 59.88085938 C-184.4111522 66.68902018 -180.65758422 72.99444478 -175.25 78.546875 C-174 80 -174 80 -174 82 C-173.34 82 -172.68 82 -172 82 C-172 82.66 -172 83.32 -172 84 C-171.01 84.33 -170.02 84.66 -169 85 C-167.86457139 86.13542861 -166.73152509 87.27332137 -165.609375 88.421875 C-148.8849859 104.82151868 -125.63427768 112.4081687 -102.49584961 112.30249023 C-80.44029359 111.77413987 -61.59764713 103.3033519 -46 88 C-45.36191406 87.38640625 -44.72382812 86.7728125 -44.06640625 86.140625 C-32.88010716 74.48096359 -27.98759107 57.96948142 -27.92529297 42.12744141 C-28.49186339 25.99314521 -34.98228955 13.32948978 -45 1 C-45 0.67 -45 0.34 -45 0 C-29.90941216 -0.82159867 -15.07896178 -1.09512013 0 0 Z " fill="#050505" transform="translate(756,528)"/>
<path d="M0 0 C2.5 0.125 2.5 0.125 3.5 1.125 C3.73192865 2.63969448 3.91215238 4.16254562 4.0625 5.6875 C4.14628906 6.51378906 4.23007812 7.34007812 4.31640625 8.19140625 C4.37699219 8.82949219 4.43757812 9.46757812 4.5 10.125 C5.43972656 9.16787109 5.43972656 9.16787109 6.3984375 8.19140625 C7.21570313 7.36511719 8.03296875 6.53882813 8.875 5.6875 C9.68710937 4.86378906 10.49921875 4.04007812 11.3359375 3.19140625 C15.30340465 -0.59702357 18.21511327 0.03975989 23.5 0.125 C22.41596829 3.37709513 21.70008284 4.03885694 19.125 6.125 C16.79288965 8.03038378 14.59804487 9.96259792 12.5 12.125 C13.84313185 15.90591617 15.52964684 18.78151916 18 21.9375 C18.6084375 22.72769531 19.216875 23.51789063 19.84375 24.33203125 C20.3903125 24.92371094 20.936875 25.51539063 21.5 26.125 C22.16 26.125 22.82 26.125 23.5 26.125 C23.5 27.115 23.5 28.105 23.5 29.125 C20.30217592 29.79121335 17.67767124 29.95736381 14.5 29.125 C11.307436 26.13688592 8.89117202 22.77365485 6.5 19.125 C5.84 19.455 5.18 19.785 4.5 20.125 C4.03348793 22.25076782 4.03348793 22.25076782 3.875 24.6875 C3.80023437 25.51378906 3.72546875 26.34007812 3.6484375 27.19140625 C3.59945312 27.82949219 3.55046875 28.46757812 3.5 29.125 C-1.25 30.25 -1.25 30.25 -3.5 29.125 C-3.52465881 25.15569011 -3.54284023 21.18640966 -3.55493164 17.21704102 C-3.55997057 15.86579614 -3.56680177 14.51455674 -3.57543945 13.16333008 C-3.58752419 11.22479566 -3.59269828 9.286222 -3.59765625 7.34765625 C-3.60289307 6.17984619 -3.60812988 5.01203613 -3.61352539 3.80883789 C-3.45973017 0.17298651 -3.45973017 0.17298651 0 0 Z " fill="#131313" transform="translate(640.5,471.875)"/>
<path d="M0 0 C1.98 0 3.96 0 6 0 C6.33 3.3 6.66 6.6 7 10 C11.18279615 6.62421446 11.18279615 6.62421446 14.875 2.75 C18.06894159 0.11969516 20.91576124 0.27228258 25 0 C23.63055898 2.94956528 22.12169591 5.52468811 20 8 C19.34 8 18.68 8 18 8 C16.5393715 10.64738916 16 11.89448334 16 15 C17.70038468 17.43366909 17.70038468 17.43366909 19.875 19.9375 C22.3333512 22.85844417 24.4553233 25.49602285 26 29 C22.94678976 29.29357791 20.04353857 29.43479122 17 29 C14.4375 26.625 14.4375 26.625 13 24 C13 23.34 13 22.68 13 22 C12.34 22 11.68 22 11 22 C10.67 20.68 10.34 19.36 10 18 C9.34 18.33 8.68 18.66 8 19 C7.5709742 21.09341518 7.5709742 21.09341518 7.4375 23.5 C7.09605489 27.90394511 7.09605489 27.90394511 6 29 C4.02 29 2.04 29 0 29 C0 19.43 0 9.86 0 0 Z " fill="#0C0C0C" transform="translate(386,472)"/>
<path d="M0 0 C3.29439727 2.2984167 3.8311006 4.02120272 4.6875 7.875 C3.0375 7.875 1.3875 7.875 -0.3125 7.875 C-0.3125 8.535 -0.3125 9.195 -0.3125 9.875 C-0.9725 9.545 -1.6325 9.215 -2.3125 8.875 C-2.3125 8.215 -2.3125 7.555 -2.3125 6.875 C-5.21323181 6.19698966 -5.21323181 6.19698966 -8.3125 5.875 C-8.9725 6.535 -9.6325 7.195 -10.3125 7.875 C-9.06533203 8.38160156 -9.06533203 8.38160156 -7.79296875 8.8984375 C-6.70628906 9.34445312 -5.61960937 9.79046875 -4.5 10.25 C-3.42105469 10.69085938 -2.34210938 11.13171875 -1.23046875 11.5859375 C1.6875 12.875 1.6875 12.875 4.6875 14.875 C5.78901019 18.41556848 5.98186224 20.19331902 4.5 23.625 C2.09471121 26.61087574 0.09760412 27.69845038 -3.71484375 28.17578125 C-12.51017442 28.21643763 -12.51017442 28.21643763 -16.3125 24.875 C-18.125 22.1875 -18.125 22.1875 -19.3125 19.875 C-18.3125 18.875 -18.3125 18.875 -15.25 18.8125 C-13.7959375 18.8434375 -13.7959375 18.8434375 -12.3125 18.875 C-12.3125 19.535 -12.3125 20.195 -12.3125 20.875 C-9.0125 21.205 -5.7125 21.535 -2.3125 21.875 C-2.3125 20.555 -2.3125 19.235 -2.3125 17.875 C-3.30830078 17.72804688 -3.30830078 17.72804688 -4.32421875 17.578125 C-13.78040733 15.97678504 -13.78040733 15.97678504 -17.3125 11.875 C-18.375 8.9375 -18.375 8.9375 -18.3125 5.875 C-13.85025716 -1.39680315 -8.00641011 -2.71915815 0 0 Z " fill="#10100F" transform="translate(502.3125,473.125)"/>
<path d="M0 0 C4.96168855 9.43266064 9.04122037 19.11476329 13 29 C10.36 29 7.72 29 5 29 C4.34 27.02 3.68 25.04 3 23 C2.07767578 23.12568359 2.07767578 23.12568359 1.13671875 23.25390625 C0.32847656 23.35574219 -0.47976563 23.45757812 -1.3125 23.5625 C-2.11300781 23.66691406 -2.91351562 23.77132813 -3.73828125 23.87890625 C-6 24 -6 24 -9 23 C-9.66 24.98 -10.32 26.96 -11 29 C-13.31 29 -15.62 29 -18 29 C-16.15143447 23.10267411 -13.82165991 17.4100579 -11.5 11.6875 C-11.09652344 10.67365234 -10.69304688 9.65980469 -10.27734375 8.61523438 C-9.88675781 7.65294922 -9.49617187 6.69066406 -9.09375 5.69921875 C-8.73990234 4.82096436 -8.38605469 3.94270996 -8.02148438 3.0378418 C-6.18593928 -0.62403558 -3.74157131 -0.0984624 0 0 Z M-3 9 C-4.06775224 10.96466413 -5.06553465 12.96855359 -6 15 C-5.67 15.66 -5.34 16.32 -5 17 C-3.35 16.67 -1.7 16.34 0 16 C-0.66 13.69 -1.32 11.38 -2 9 C-2.33 9 -2.66 9 -3 9 Z " fill="#0E0E0E" transform="translate(571,472)"/>
<path d="M0 0 C2.68486605 1.94652789 3.70879324 3.12637972 4.75 6.25 C4.87375 7.11625 4.87375 7.11625 5 8 C2.75 8.6875 2.75 8.6875 0 9 C-1.33849671 8.00692179 -2.67151309 7.00642948 -4 6 C-7.16732421 5.74913276 -7.16732421 5.74913276 -10 6 C-10 6.99 -10 7.98 -10 9 C-9.33613281 9.17015625 -8.67226563 9.3403125 -7.98828125 9.515625 C1.84542587 12.21451104 1.84542587 12.21451104 5 16 C5.5625 19.5 5.5625 19.5 5 23 C3.13291495 25.36497439 1.67938569 26.66030715 -1 28 C-5.88639223 28.4091665 -10.45706511 28.59828088 -15.0625 26.8125 C-17.31296033 24.70723066 -18.12800528 22.93307315 -19 20 C-18 19 -18 19 -15.5625 18.8125 C-13 19 -13 19 -11 21 C-8.78927023 21.24253813 -8.78927023 21.24253813 -6.375 21.125 C-5.55773437 21.10695313 -4.74046875 21.08890625 -3.8984375 21.0703125 C-2.95871094 21.03550781 -2.95871094 21.03550781 -2 21 C-2 20.34 -2 19.68 -2 19 C-2.81984375 18.76925781 -3.6396875 18.53851563 -4.484375 18.30078125 C-13.22288181 15.65623314 -13.22288181 15.65623314 -16.8125 12.625 C-18.36450032 9.19426245 -18.20831716 7.54943166 -17 4 C-12.43713824 -1.82158225 -6.77772021 -1.61967579 0 0 Z " fill="#0F0F0E" transform="translate(365,473)"/>
<path d="M0 0 C1.90112814 2.01634802 3.05524413 3.62357596 4.0625 6.1875 C-1.39712567 7.36506632 -3.27930293 6.98241824 -7.9375 4.1875 C-11.66843378 4.40997835 -11.66843378 4.40997835 -14.9375 5.1875 C-15.71771606 9.5021888 -16.31712893 13.0248864 -14.9375 17.25 C-12.96847781 19.54716264 -12.96847781 19.54716264 -9.375 19.625 C-5.87824886 19.53636432 -5.87824886 19.53636432 -3.9375 17.1875 C-1.31365122 16.13796049 -0.3337985 16.02237562 2.3125 17.125 C3.17875 17.6509375 3.17875 17.6509375 4.0625 18.1875 C2.53663257 22.07152619 0.69201461 24.11349165 -2.9375 26.1875 C-8.29310631 27.0039034 -12.5630591 26.87472045 -17.4375 24.4375 C-21.59507111 20.695686 -23.52716892 18.21483594 -24.0703125 12.4140625 C-23.76800518 7.34596919 -21.49736042 2.74736042 -17.9375 -0.8125 C-12.06503074 -3.74873463 -5.56007367 -3.43068376 0 0 Z " fill="#0F0F0E" transform="translate(620.9375,474.8125)"/>
<path d="M0 0 C2.48982668 2.824281 5 6.13275597 5 10 C7.18089701 7.95108811 8.74157905 5.91222628 10.3125 3.375 C12.27361507 0.5640684 12.77047513 0.07650829 16.1875 -1.0625 C19 -1 19 -1 21 1 C20.52949219 1.66386719 20.05898438 2.32773437 19.57421875 3.01171875 C18.95160156 3.89472656 18.32898438 4.77773438 17.6875 5.6875 C17.07261719 6.55761719 16.45773437 7.42773438 15.82421875 8.32421875 C15.22222656 9.20722656 14.62023437 10.09023438 14 11 C13.44183594 11.81597656 12.88367188 12.63195312 12.30859375 13.47265625 C10.80835995 16.37012272 10.54153694 18.50691215 10.375 21.75 C10.08498584 26.91501416 10.08498584 26.91501416 9 28 C7.00041636 28.04080783 4.99954746 28.04254356 3 28 C2.9484375 27.29617188 2.896875 26.59234375 2.84375 25.8671875 C1.75615294 16.40014943 -2.14580439 6.85419561 -9 0 C-5.65361104 -1.67319448 -3.53510522 -1.01858964 0 0 Z " fill="#0F0F0F" transform="translate(429,473)"/>
<path d="M0 0 C8.25 0 16.5 0 25 0 C26.33332095 2.6666419 25.67102033 4.16680303 25 7 C20.545 7.495 20.545 7.495 16 8 C16.01160156 9.09699219 16.02320313 10.19398438 16.03515625 11.32421875 C16.04453964 12.77864412 16.05363925 14.23307135 16.0625 15.6875 C16.07087891 16.40873047 16.07925781 17.12996094 16.08789062 17.87304688 C16.10543632 21.71555382 15.93524221 25.26639526 15 29 C13.02 29 11.04 29 9 29 C9 21.74 9 14.48 9 7 C6.03 7 3.06 7 0 7 C0 4.69 0 2.38 0 0 Z " fill="#0D0D0D" transform="translate(518,472)"/>
<path d="M0 0 C1.7680198 3.5360396 1.18464913 7.60571255 1.1875 11.5 C1.19974609 12.38042969 1.21199219 13.26085937 1.22460938 14.16796875 C1.22750977 15.43060547 1.22750977 15.43060547 1.23046875 16.71875 C1.23457764 17.49154297 1.23868652 18.26433594 1.24291992 19.06054688 C1 21 1 21 -1 23 C-2.859375 23.00390625 -2.859375 23.00390625 -5 22 C-7.140625 19.27734375 -7.140625 19.27734375 -9.25 15.9375 C-9.95640625 14.83277344 -10.6628125 13.72804688 -11.390625 12.58984375 C-11.92171875 11.73519531 -12.4528125 10.88054688 -13 10 C-13.58863681 13.45267642 -14.14282027 16.89765367 -14.5625 20.375 C-14.7790625 22.169375 -14.7790625 22.169375 -15 24 C-16.32 23.34 -17.64 22.68 -19 22 C-19 15.07 -19 8.14 -19 1 C-17.35 1 -15.7 1 -14 1 C-12.12985879 3.16448775 -10.68487974 5.10319582 -9.1875 7.5 C-8.78080078 8.12003906 -8.37410156 8.74007812 -7.95507812 9.37890625 C-6.95449445 10.90921069 -5.97514662 12.45336222 -5 14 C-5.020625 12.741875 -5.04125 11.48375 -5.0625 10.1875 C-5.10886083 7.35948913 -4.91692961 5.75078884 -4 3 C-4.66 2.67 -5.32 2.34 -6 2 C-4.02 1.34 -2.04 0.68 0 0 Z " fill="#242323" transform="translate(495,683)"/>
<path d="M0 0 C2.9375 1.875 2.9375 1.875 5 4 C5 4.66 5 5.32 5 6 C4.01 6.33 3.02 6.66 2 7 C1.34 6.34 0.68 5.68 0 5 C-4.05261287 4.65509678 -5.54754176 4.69836118 -9 7 C-9.73606499 10.56769552 -9.73606499 10.56769552 -10 14 C-9.34 14.33 -8.68 14.66 -8 15 C-7.34 15.66 -6.68 16.32 -6 17 C-2.91652174 17.16681109 -2.91652174 17.16681109 0 17 C-0.33 15.35 -0.66 13.7 -1 12 C-1.99 11.67 -2.98 11.34 -4 11 C-2.68 11 -1.36 11 0 11 C0.33 10.34 0.66 9.68 1 9 C2.32 9.66 3.64 10.32 5 11 C5 13.97 5 16.94 5 20 C2.26393229 21.82404514 0.12905344 23.0891358 -3.2265625 22.82421875 C-7.30259074 21.93130955 -11.19052282 20.72040905 -15 19 C-15.69890847 14.63182208 -16.30880577 10.426216 -16 6 C-15.34 5.34 -14.68 4.68 -14 4 C-13.67 4.33 -13.34 4.66 -13 5 C-12.38125 4.360625 -11.7625 3.72125 -11.125 3.0625 C-7.52072687 -0.4357651 -4.96784874 -0.42100413 0 0 Z " fill="#272727" transform="translate(640,684)"/>
<path d="M0 0 C3.4431146 2.09580889 5.7468218 4.1265401 7 8 C7.52055293 11.99090581 7.16996586 13.69523363 5.1875 17.25 C2.29320245 20.88854549 0.84365953 21.90318661 -3.8125 22.4375 C-8.64484674 22.33942654 -10.69263085 20.38803669 -14 17 C-15.5547669 13.89046621 -15.28644437 11.43733239 -15 8 C-11.37014795 1.36613246 -7.63600649 -1.22295416 0 0 Z M-9.375 5.625 C-11.48706506 8.71186432 -11.61195145 10.3282913 -11 14 C-9.5 16.5 -9.5 16.5 -7 18 C-4 18.75 -4 18.75 -1 18 C1.67838573 16.06873898 1.67838573 16.06873898 3 13 C2.34195965 9.11756192 1.80472397 6.80472397 -1 4 C-4.59411792 3.53120201 -6.35164037 3.55638552 -9.375 5.625 Z " fill="#1F1F1E" transform="translate(529,684)"/>
<path d="M0 0 C3.65039173 2.77747197 5.90685391 5.51810103 7 10 C6.91372577 14.1411628 6.30343408 15.64988376 3.5625 18.8125 C0.56862363 21.36824812 -0.34269198 21.92415677 -4.25 22.375 C-9.05118528 21.89488147 -10.73455434 20.49326745 -14 17 C-15.5625 14.125 -15.5625 14.125 -16 11 C-14.70630979 6.98275144 -13.37846112 3.64401305 -10 1 C-6.77659223 -0.61170388 -3.48558081 -0.59542551 0 0 Z M-9.3125 5.625 C-11.50197249 8.7064798 -11.61793165 10.29241009 -11 14 C-9.58333333 16.58333333 -9.58333333 16.58333333 -7 18 C-1.94307101 17.85718492 -1.94307101 17.85718492 2 15 C2.24212873 13.01871492 2.24212873 13.01871492 2.125 10.875 C2.08375 9.59625 2.0425 8.3175 2 7 C0.68 6.67 -0.64 6.34 -2 6 C-2 5.34 -2 4.68 -2 4 C-5.22939919 3.64117787 -6.61209763 3.72741996 -9.3125 5.625 Z " fill="#1D1C1C" transform="translate(602,684)"/>
<path d="M0 0 C1.39456452 0.00667256 2.78911118 0.01863093 4.18359375 0.03515625 C4.89451172 0.03966797 5.60542969 0.04417969 6.33789062 0.04882812 C8.09899388 0.06064761 9.86005411 0.07858362 11.62109375 0.09765625 C11.29109375 1.41765625 10.96109375 2.73765625 10.62109375 4.09765625 C7.32109375 4.09765625 4.02109375 4.09765625 0.62109375 4.09765625 C0.95109375 5.41765625 1.28109375 6.73765625 1.62109375 8.09765625 C4.26109375 8.42765625 6.90109375 8.75765625 9.62109375 9.09765625 C9.62109375 10.08765625 9.62109375 11.07765625 9.62109375 12.09765625 C5.16609375 12.59265625 5.16609375 12.59265625 0.62109375 13.09765625 C0.62109375 14.41765625 0.62109375 15.73765625 0.62109375 17.09765625 C1.32234375 16.89140625 2.02359375 16.68515625 2.74609375 16.47265625 C6.22295447 16.01915268 8.39507498 16.82225348 11.62109375 18.09765625 C11.62109375 19.08765625 11.62109375 20.07765625 11.62109375 21.09765625 C6.67109375 21.42765625 1.72109375 21.75765625 -3.37890625 22.09765625 C-4.14078815 19.05012865 -4.50673575 17.04918608 -4.51171875 14.0234375 C-4.51300781 13.27384766 -4.51429688 12.52425781 -4.515625 11.75195312 C-4.51175781 10.97916016 -4.50789063 10.20636719 -4.50390625 9.41015625 C-4.50777344 8.62576172 -4.51164062 7.84136719 -4.515625 7.03320312 C-4.50369235 0.13016452 -4.50369235 0.13016452 0 0 Z " fill="#181717" transform="translate(370.37890625,683.90234375)"/>
<path d="M0 0 C2.0625 0.4375 2.0625 0.4375 4 1 C3.95875 1.78375 3.9175 2.5675 3.875 3.375 C3.71271266 6.16116119 3.71271266 6.16116119 6 8 C7.98821313 8.39764263 9.98944339 8.73775349 12 9 C11.979375 7.700625 11.95875 6.40125 11.9375 5.0625 C11.91600546 3.70834367 11.92851801 2.35243917 12 1 C13 0 13 0 15.5625 -0.0625 C16.7690625 -0.0315625 16.7690625 -0.0315625 18 0 C17.9278125 1.09699219 17.855625 2.19398438 17.78125 3.32421875 C17.68741634 4.77864044 17.593671 6.23306783 17.5 7.6875 C17.45230469 8.40873047 17.40460938 9.12996094 17.35546875 9.87304688 C17.11796481 13.58828714 16.94125363 17.27694874 17 21 C16.34 21.33 15.68 21.66 15 22 C14.01 21.67 13.02 21.34 12 21 C12 18.36 12 15.72 12 13 C9.69 13 7.38 13 5 13 C4.67 15.64 4.34 18.28 4 21 C2.68 21.33 1.36 21.66 0 22 C-1.09472258 17.58635658 -1.14938175 13.26875116 -1.125 8.75 C-1.12886719 8.0178125 -1.13273437 7.285625 -1.13671875 6.53125 C-1.12671034 1.12671034 -1.12671034 1.12671034 0 0 Z " fill="#1F1F1F" transform="translate(438,684)"/>
<path d="M0 0 C5.61 0 11.22 0 17 0 C16.00732814 4.96335931 14.98806053 6.86061263 12.0625 10.8125 C11.35222656 11.78832031 10.64195312 12.76414062 9.91015625 13.76953125 C9.27980469 14.50558594 8.64945313 15.24164062 8 16 C7.34 16 6.68 16 6 16 C6 16.66 6 17.32 6 18 C7.051875 17.814375 8.10375 17.62875 9.1875 17.4375 C12.57119882 17.04920669 14.76425888 17.11752515 18 18 C18 18.99 18 19.98 18 21 C11.73 21 5.46 21 -1 21 C-0.34 19.35 0.32 17.7 1 16 C1.66 16 2.32 16 3 16 C3.2475 15.484375 3.495 14.96875 3.75 14.4375 C5.39581616 11.22815849 7.1976096 8.12414336 9 5 C6.03 4.67 3.06 4.34 0 4 C0 2.68 0 1.36 0 0 Z " fill="#121111" transform="translate(689,684)"/>
<path d="M0 0 C3 1.875 3 1.875 5 4 C5 4.66 5 5.32 5 6 C3.125 6.625 3.125 6.625 1 7 C0.34 6.34 -0.32 5.68 -1 5 C-3.95746492 4.41654524 -3.95746492 4.41654524 -7 5 C-9.18792354 7.03506935 -9.18792354 7.03506935 -10 10 C-9.18712004 13.84179583 -9.18712004 13.84179583 -7 17 C-2.96839809 17.26293056 -1.44107266 17.29404844 2 15 C4.1875 15.375 4.1875 15.375 6 16 C5 19 5 19 2.875 20.6875 C-0.75816403 22.34611836 -3.03756653 22.48661464 -7 22 C-10.08193978 20.3718054 -12.26420667 18.96990938 -14.375 16.1875 C-15.31707395 12.89024117 -15.41260656 10.4187401 -15 7 C-11.28948473 0.82040579 -7.09404776 -1.01731086 0 0 Z " fill="#1D1D1D" transform="translate(414,684)"/>
<path d="M0 0 C2.95839355 -0.02689449 5.91654427 -0.04678741 8.875 -0.0625 C9.71675781 -0.07087891 10.55851562 -0.07925781 11.42578125 -0.08789062 C12.23144531 -0.09111328 13.03710938 -0.09433594 13.8671875 -0.09765625 C14.98262939 -0.10551147 14.98262939 -0.10551147 16.12060547 -0.11352539 C18 0 18 0 20 1 C20 1.66 20 2.32 20 3 C18 4 18 4 11 4 C11.33 9.61 11.66 15.22 12 21 C10.68 21.33 9.36 21.66 8 22 C7 21 7 21 6.90234375 17.18359375 C6.90901911 15.60153318 6.92098125 14.01948841 6.9375 12.4375 C6.94426758 11.22803711 6.94426758 11.22803711 6.95117188 9.99414062 C6.96299482 7.99606244 6.98093086 5.99802217 7 4 C4.03 4 1.06 4 -2 4 C-1.34 2.68 -0.68 1.36 0 0 Z " fill="#1E1D1D" transform="translate(330,684)"/>
<path d="M0 0 C1.98 0 3.96 0 6 0 C6 5.94 6 11.88 6 18 C7.65 17.67 9.3 17.34 11 17 C13.8125 17.4375 13.8125 17.4375 16 18 C16 18.99 16 19.98 16 21 C10.72 21 5.44 21 0 21 C0.33 19.02 0.66 17.04 1 15 C0.34 14.67 -0.32 14.34 -1 14 C-0.67 9.38 -0.34 4.76 0 0 Z " fill="#252524" transform="translate(554,684)"/>
<path d="M0 0 C3.4431146 2.09580889 5.7468218 4.1265401 7 8 C7.125 11.25 7.125 11.25 7 14 C6.34 13.01 5.68 12.02 5 11 C4.34 11.66 3.68 12.32 3 13 C2.525625 11.865625 2.05125 10.73125 1.5625 9.5625 C0.36377917 6.24259834 0.36377917 6.24259834 -1 5 C-5.56894387 4.59387166 -7.5101426 5.11184215 -11 8 C-11.99 8 -12.98 8 -14 8 C-13.12269491 5.29497597 -12.28331029 3.31599994 -10.375 1.1875 C-6.93761136 -0.53119432 -3.71958378 -0.67292669 0 0 Z " fill="#222121" transform="translate(529,684)"/>
<path d="M0 0 C1.65 0 3.3 0 5 0 C5 6.93 5 13.86 5 21 C3.35 21 1.7 21 0 21 C0 14.07 0 7.14 0 0 Z " fill="#242423" transform="translate(666,684)"/>
<path d="M0 0 C2.9375 1.875 2.9375 1.875 5 4 C5 4.66 5 5.32 5 6 C4.01 6.33 3.02 6.66 2 7 C1.34 6.34 0.68 5.68 0 5 C-2.87237733 4.41557037 -2.87237733 4.41557037 -6 5 C-8.9271127 7.46143568 -10.88082786 9.82124178 -13 13 C-13.309375 12.21625 -13.61875 11.4325 -13.9375 10.625 C-14.92875038 8.07669872 -14.92875038 8.07669872 -16 6 C-15.34 5.34 -14.68 4.68 -14 4 C-13.67 4.33 -13.34 4.66 -13 5 C-12.38125 4.360625 -11.7625 3.72125 -11.125 3.0625 C-7.52072687 -0.4357651 -4.96784874 -0.42100413 0 0 Z " fill="#1B1A1A" transform="translate(640,684)"/>
<path d="M0 0 C1.2065625 0.0309375 1.2065625 0.0309375 2.4375 0.0625 C2.3653125 1.15949219 2.293125 2.25648438 2.21875 3.38671875 C2.12491634 4.84114044 2.031171 6.29556783 1.9375 7.75 C1.88980469 8.47123047 1.84210938 9.19246094 1.79296875 9.93554688 C1.55546481 13.65078714 1.37875363 17.33944874 1.4375 21.0625 C0.7775 21.3925 0.1175 21.7225 -0.5625 22.0625 C-1.5525 21.7325 -2.5425 21.4025 -3.5625 21.0625 C-3.5625 18.0925 -3.5625 15.1225 -3.5625 12.0625 C-2.9025 12.0625 -2.2425 12.0625 -1.5625 12.0625 C-1.5625 11.0725 -1.5625 10.0825 -1.5625 9.0625 C-1.8925 9.3925 -2.2225 9.7225 -2.5625 10.0625 C-4.24858966 10.13455511 -5.93750659 10.14636068 -7.625 10.125 C-8.54410156 10.11597656 -9.46320313 10.10695313 -10.41015625 10.09765625 C-11.12042969 10.08605469 -11.83070313 10.07445312 -12.5625 10.0625 C-9.5625 8.0625 -9.5625 8.0625 -6.375 8.4375 C-5.446875 8.64375 -4.51875 8.85 -3.5625 9.0625 C-3.583125 7.763125 -3.60375 6.46375 -3.625 5.125 C-3.64649454 3.77084367 -3.63398199 2.41493917 -3.5625 1.0625 C-2.5625 0.0625 -2.5625 0.0625 0 0 Z " fill="#2D2C2C" transform="translate(453.5625,683.9375)"/>
<path d="M0 0 C0.33 0 0.66 0 1 0 C1.33 1.65 1.66 3.3 2 5 C2.66 4.01 3.32 3.02 4 2 C4.66 4.64 5.32 7.28 6 10 C8.97 10.33 11.94 10.66 15 11 C14.67 12.32 14.34 13.64 14 15 C9.55962474 15.44403753 7.49917368 15.32022463 3.6875 12.875 C0.86724678 9.85798493 -0.22897002 8.02648992 -1 4 C-0.625 1.625 -0.625 1.625 0 0 Z " fill="#1C1C1C" transform="translate(587,691)"/>
<path d="M0 0 C3.63 0 7.26 0 11 0 C11 0.33 11 0.66 11 1 C7.7 1 4.4 1 1 1 C1.33 2.32 1.66 3.64 2 5 C4.64 5.33 7.28 5.66 10 6 C10 6.99 10 7.98 10 9 C5.545 9.495 5.545 9.495 1 10 C1 11.32 1 12.64 1 14 C1.721875 13.814375 2.44375 13.62875 3.1875 13.4375 C6.12826973 12.98004693 8.14103058 13.26483643 11 14 C11 14.33 11 14.66 11 15 C7.37 15 3.74 15 0 15 C0 10.05 0 5.1 0 0 Z " fill="#323231" transform="translate(370,687)"/>
<path d="M0 0 C0.66 0.99 1.32 1.98 2 3 C2.99 2.01 3.98 1.02 5 0 C5 1.98 5 3.96 5 6 C5.66 6.33 6.32 6.66 7 7 C7.99 8.485 7.99 8.485 9 10 C8.01 10 7.02 10 6 10 C6.33 10.99 6.66 11.98 7 13 C4.69 12.34 2.38 11.68 0 11 C-1.28571429 3.57142857 -1.28571429 3.57142857 0 0 Z " fill="#363535" transform="translate(625,692)"/>
<path d="M0 0 C3.67882073 3.28466137 5.75150101 6.66360908 8 11 C8 11.66 8 12.32 8 13 C7.01 13.33 6.02 13.66 5 14 C2.69 10.37 0.38 6.74 -2 3 C-1.34 2.01 -0.68 1.02 0 0 Z " fill="#1A1A19" transform="translate(483,688)"/>
<path d="M0 0 C5.94 0 11.88 0 18 0 C18 0.99 18 1.98 18 3 C11.73 3 5.46 3 -1 3 C-0.67 2.01 -0.34 1.02 0 0 Z " fill="#141413" transform="translate(689,702)"/>
<path d="M0 0 C0.33 0.66 0.66 1.32 1 2 C1.66 2 2.32 2 3 2 C3 2.66 3 3.32 3 4 C2.34 4 1.68 4 1 4 C1 4.66 1 5.32 1 6 C2.093125 5.814375 3.18625 5.62875 4.3125 5.4375 C8 5 8 5 11 6 C10 7 10 7 7.05859375 7.09765625 C5.26615234 7.08025391 5.26615234 7.08025391 3.4375 7.0625 C1.64119141 7.04896484 1.64119141 7.04896484 -0.19140625 7.03515625 C-1.11824219 7.02355469 -2.04507813 7.01195312 -3 7 C-3.33 6.01 -3.66 5.02 -4 4 C-3.34 4 -2.68 4 -2 4 C-1.34 2.68 -0.68 1.36 0 0 Z " fill="#333333" transform="translate(694,696)"/>
<path d="M0 0 C5.61 0 11.22 0 17 0 C16.67 1.32 16.34 2.64 16 4 C16 3.01 16 2.02 16 1 C11.05 1 6.1 1 1 1 C1 1.66 1 2.32 1 3 C4.96 3 8.92 3 13 3 C12.01 3.99 11.02 4.98 10 6 C9.67 5.67 9.34 5.34 9 5 C7.48530552 4.76807135 5.96245438 4.58784762 4.4375 4.4375 C3.61121094 4.35371094 2.78492188 4.26992188 1.93359375 4.18359375 C1.29550781 4.12300781 0.65742187 4.06242188 0 4 C0 2.68 0 1.36 0 0 Z " fill="#4B494B" transform="translate(689,684)"/>
<path d="M0 0 C0.66 0.33 1.32 0.66 2 1 C-3.28 6.28 -8.56 11.56 -14 17 C-14 11.79027084 -9.49956486 8.58109594 -6 5 C-4.05399166 3.22905099 -2.08162714 1.61326103 0 0 Z " fill="#191918" transform="translate(587,342)"/>
<path d="M0 0 C1.32 0 2.64 0 4 0 C3.35550393 3.01217112 2.34977818 5.51655836 0.9375 8.25 C0.57527344 8.95640625 0.21304688 9.6628125 -0.16015625 10.390625 C-0.43730469 10.92171875 -0.71445312 11.4528125 -1 12 C-1.33 12 -1.66 12 -2 12 C-2.05422947 10.5629191 -2.09289723 9.12524538 -2.125 7.6875 C-2.14820313 6.88699219 -2.17140625 6.08648438 -2.1953125 5.26171875 C-2 3 -2 3 0 0 Z " fill="#100F0F" transform="translate(590,686)"/>
<path d="M0 0 C0.8971875 0.309375 0.8971875 0.309375 1.8125 0.625 C0.8125 3.625 0.8125 3.625 -1.3125 5.3125 C-4.78831696 6.899286 -7.40842373 6.8472986 -11.1875 6.625 C-11.1875 6.295 -11.1875 5.965 -11.1875 5.625 C-9.2075 5.625 -7.2275 5.625 -5.1875 5.625 C-5.1875 4.305 -5.1875 2.985 -5.1875 1.625 C-2.1875 -0.375 -2.1875 -0.375 0 0 Z " fill="#303030" transform="translate(418.1875,699.375)"/>
<path d="M0 0 C0 2.97 0 5.94 0 9 C-1.32 9 -2.64 9 -4 9 C-4.1875 5.625 -4.1875 5.625 -4 2 C-1 0 -1 0 0 0 Z " fill="#151514" transform="translate(518,690)"/>
<path d="M0 0 C0.33 0 0.66 0 1 0 C1 4.29 1 8.58 1 13 C0.67 13 0.34 13 0 13 C0 11.35 0 9.7 0 8 C-2.97 8 -5.94 8 -9 8 C-6.4345406 5.4345406 -4.52313332 5.45953913 -1 5 C-0.67 3.35 -0.34 1.7 0 0 Z " fill="#030302" transform="translate(452,688)"/>
<path d="M0 0 C0.33 0 0.66 0 1 0 C1.33 1.65 1.66 3.3 2 5 C2.66 4.01 3.32 3.02 4 2 C4.66 4.64 5.32 7.28 6 10 C4.35 10 2.7 10 1 10 C-1.42857143 3.71428571 -1.42857143 3.71428571 0 0 Z " fill="#2E2D2C" transform="translate(587,691)"/>
<path d="M0 0 C3.875 0.875 3.875 0.875 5 2 C5.07179964 3.51928038 5.08392007 5.04167482 5.0625 6.5625 C5.05347656 7.38878906 5.04445313 8.21507812 5.03515625 9.06640625 C5.02355469 9.70449219 5.01195312 10.34257813 5 11 C4.67 11 4.34 11 4 11 C4 8.36 4 5.72 4 3 C3.01 3 2.02 3 1 3 C0.67 3.99 0.34 4.98 0 6 C-0.33 5.01 -0.66 4.02 -1 3 C-1.99 2.67 -2.98 2.34 -4 2 C-2.68 2 -1.36 2 0 2 C0 1.34 0 0.68 0 0 Z " fill="#4C4B4C" transform="translate(640,693)"/>
<path d="M0 0 C0.66 0.33 1.32 0.66 2 1 C-1.3 4.3 -4.6 7.6 -8 11 C-8.66 10.67 -9.32 10.34 -10 10 C-8.7121669 8.51749445 -7.41960936 7.03909182 -6.125 5.5625 C-5.40570313 4.73878906 -4.68640625 3.91507812 -3.9453125 3.06640625 C-2 1 -2 1 0 0 Z " fill="#1C1C1C" transform="translate(403,473)"/>
<path d="M0 0 C1.32 1.32 2.64 2.64 4 4 C2.02 4.99 2.02 4.99 0 6 C-1.5 4.625 -1.5 4.625 -3 3 C-3 2.34 -3 1.68 -3 1 C-2.01 0.67 -1.02 0.34 0 0 Z " fill="#242222" transform="translate(518,698)"/>
<path d="M0 0 C0.33 0 0.66 0 1 0 C1.125 2.875 1.125 2.875 1 6 C0.34 6.66 -0.32 7.32 -1 8 C-1.66 7.67 -2.32 7.34 -3 7 C-3 5.68 -3 4.36 -3 3 C-2.34 3 -1.68 3 -1 3 C-0.67 2.01 -0.34 1.02 0 0 Z " fill="#110F10" transform="translate(534,694)"/>
<path d="M0 0 C0 0.33 0 0.66 0 1 C-1.98 1.33 -3.96 1.66 -6 2 C-4.68 2.66 -3.36 3.32 -2 4 C-3.98 4.33 -5.96 4.66 -8 5 C-8 4.01 -8 3.02 -8 2 C-8.66 1.67 -9.32 1.34 -10 1 C-6.78548731 -0.60725635 -3.56387464 -0.05748185 0 0 Z " fill="#323231" transform="translate(602,684)"/>
<path d="M0 0 C0.33 0.66 0.66 1.32 1 2 C4.96 2 8.92 2 13 2 C12.01 2.99 11.02 3.98 10 5 C9.67 4.67 9.34 4.34 9 4 C7.48530552 3.76807135 5.96245438 3.58784762 4.4375 3.4375 C3.61121094 3.35371094 2.78492188 3.26992188 1.93359375 3.18359375 C1.29550781 3.12300781 0.65742187 3.06242188 0 3 C0 2.01 0 1.02 0 0 Z " fill="#353535" transform="translate(689,685)"/>
<path d="M0 0 C0.33 1.32 0.66 2.64 1 4 C0.2575 3.95875 -0.485 3.9175 -1.25 3.875 C-4.08758952 4.00398134 -5.58773938 4.57051222 -8 6 C-6.98565881 3.46414701 -6.34981128 2.21863205 -4 0.75 C-2 0 -2 0 0 0 Z " fill="#2A2A29" transform="translate(738,320)"/>
<path d="M0 0 C2.64 0.33 5.28 0.66 8 1 C8 1.66 8 2.32 8 3 C5.69 3 3.38 3 1 3 C0.67 2.01 0.34 1.02 0 0 Z " fill="#070606" transform="translate(631,702)"/>
<path d="M0 0 C0.99 0.33 1.98 0.66 3 1 C-2.75 6 -2.75 6 -5 6 C-4.34 4.68 -3.68 3.36 -3 2 C-2.67 2.33 -2.34 2.66 -2 3 C-1.34 2.01 -0.68 1.02 0 0 Z " fill="#2F2E2E" transform="translate(629,686)"/>
<path d="M0 0 C0.66 0.33 1.32 0.66 2 1 C-0.31 3.31 -2.62 5.62 -5 8 C-5.33 7.34 -5.66 6.68 -6 6 C-4 4 -2 2 0 0 Z " fill="#1E1F1F" transform="translate(605,473)"/>
<path d="M0 0 C2 3 2 3 3 6 C2.34 6 1.68 6 1 6 C0.67 4.02 0.34 2.04 0 0 Z " fill="#4F4F50" transform="translate(585,696)"/>
<path d="M0 0 C4 1 4 1 4 1 Z " fill="#504E4E" transform="translate(595,700)"/>
<path d="M0 0 C0.33 0.66 0.66 1.32 1 2 C0.34 1.67 -0.32 1.34 -1 1 C-0.67 0.67 -0.34 0.34 0 0 Z " fill="#4E4E4D" transform="translate(602,694)"/>
<path d="M0 0 C3 1 3 1 3 1 Z " fill="#4C4C4F" transform="translate(485,688)"/>
<path d="M0 0 C0.99 0.495 0.99 0.495 2 1 C1.01 1.495 1.01 1.495 0 2 C0 1.34 0 0.68 0 0 Z " fill="#323332" transform="translate(432,502)"/>
<path d="M0 0 C0.33 0.66 0.66 1.32 1 2 C0.34 1.67 -0.32 1.34 -1 1 C-0.67 0.67 -0.34 0.34 0 0 Z " fill="#393937" transform="translate(498,492)"/>
<path d="M0 0 C2 1 2 1 2 1 Z " fill="#515152" transform="translate(400,703)"/>
<path d="M0 0 C2 1 2 1 2 1 Z " fill="#4E4B4B" transform="translate(600,699)"/>
<path d="" fill="#4E4F50" transform="translate(0,0)"/>
<path d="" fill="#505051" transform="translate(0,0)"/>
<path d="" fill="#515151" transform="translate(0,0)"/>
<path d="" fill="#4E494C" transform="translate(0,0)"/>
<path d="M0 0 C2 1 2 1 2 1 Z " fill="#4D4D4C" transform="translate(373,689)"/>
<path d="M0 0 C2 1 2 1 2 1 Z " fill="#4C4B4C" transform="translate(409,682)"/>
<path d="" fill="#343432" transform="translate(0,0)"/>
<path d="" fill="#333534" transform="translate(0,0)"/>
<path d="M0 0 C2 1 2 1 2 1 Z " fill="#373637" transform="translate(486,490)"/>
<path d="M0 0 C2 1 2 1 2 1 Z " fill="#323131" transform="translate(696,328)"/>
<path d="" fill="#4F504F" transform="translate(0,0)"/>
<path d="" fill="#5B5957" transform="translate(0,0)"/>
<path d="" fill="#575758" transform="translate(0,0)"/>
<path d="" fill="#565553" transform="translate(0,0)"/>
<path d="" fill="#5A5758" transform="translate(0,0)"/>
<path d="" fill="#575654" transform="translate(0,0)"/>
<path d="" fill="#565656" transform="translate(0,0)"/>
<path d="" fill="#575656" transform="translate(0,0)"/>
<path d="" fill="#585757" transform="translate(0,0)"/>
<path d="" fill="#575655" transform="translate(0,0)"/>
<path d="" fill="#555354" transform="translate(0,0)"/>
<path d="" fill="#545452" transform="translate(0,0)"/>
<path d="" fill="#575757" transform="translate(0,0)"/>
<path d="" fill="#4D4D4B" transform="translate(0,0)"/>
<path d="" fill="#54554C" transform="translate(0,0)"/>
<path d="" fill="#565353" transform="translate(0,0)"/>
<path d="" fill="#515152" transform="translate(0,0)"/>
<path d="" fill="#535255" transform="translate(0,0)"/>
<path d="" fill="#4E4C4D" transform="translate(0,0)"/>
<path d="" fill="#545151" transform="translate(0,0)"/>
<path d="" fill="#4D4D4E" transform="translate(0,0)"/>
<path d="" fill="#545354" transform="translate(0,0)"/>
<path d="" fill="#4E4E4E" transform="translate(0,0)"/>
<path d="" fill="#4E504E" transform="translate(0,0)"/>
<path d="" fill="#514E4D" transform="translate(0,0)"/>
<path d="" fill="#504D4B" transform="translate(0,0)"/>
<path d="" fill="#50514F" transform="translate(0,0)"/>
<path d="" fill="#4E4D4F" transform="translate(0,0)"/>
<path d="" fill="#514E51" transform="translate(0,0)"/>
<path d="" fill="#4D504E" transform="translate(0,0)"/>
<path d="" fill="#524D50" transform="translate(0,0)"/>
<path d="" fill="#50514D" transform="translate(0,0)"/>
<path d="" fill="#4E4E4E" transform="translate(0,0)"/>
<path d="" fill="#4D4E4D" transform="translate(0,0)"/>
<path d="" fill="#504E4E" transform="translate(0,0)"/>
<path d="" fill="#505251" transform="translate(0,0)"/>
<path d="" fill="#4D4A4D" transform="translate(0,0)"/>
<path d="" fill="#525256" transform="translate(0,0)"/>
<path d="" fill="#4F494F" transform="translate(0,0)"/>
<path d="" fill="#535150" transform="translate(0,0)"/>
<path d="" fill="#534F4E" transform="translate(0,0)"/>
<path d="" fill="#504D4F" transform="translate(0,0)"/>
<path d="" fill="#4E4F4E" transform="translate(0,0)"/>
<path d="" fill="#4B504E" transform="translate(0,0)"/>
<path d="" fill="#494D4C" transform="translate(0,0)"/>
<path d="" fill="#504F4F" transform="translate(0,0)"/>
<path d="" fill="#4F5050" transform="translate(0,0)"/>
<path d="" fill="#4C4F4D" transform="translate(0,0)"/>
<path d="" fill="#4E4E4C" transform="translate(0,0)"/>
<path d="" fill="#4F4F51" transform="translate(0,0)"/>
<path d="" fill="#534F50" transform="translate(0,0)"/>
<path d="" fill="#515156" transform="translate(0,0)"/>
<path d="" fill="#4F4F4E" transform="translate(0,0)"/>
<path d="" fill="#4A4F4E" transform="translate(0,0)"/>
<path d="" fill="#505050" transform="translate(0,0)"/>
<path d="" fill="#4C4C4A" transform="translate(0,0)"/>
<path d="" fill="#4F4F4F" transform="translate(0,0)"/>
<path d="" fill="#4B4D4D" transform="translate(0,0)"/>
<path d="" fill="#4B4C49" transform="translate(0,0)"/>
<path d="" fill="#4D4C49" transform="translate(0,0)"/>
<path d="" fill="#4E4B4B" transform="translate(0,0)"/>
<path d="" fill="#4A4846" transform="translate(0,0)"/>
<path d="" fill="#484646" transform="translate(0,0)"/>
<path d="" fill="#4A4848" transform="translate(0,0)"/>
<path d="" fill="#403C3F" transform="translate(0,0)"/>
<path d="" fill="#3E3D3D" transform="translate(0,0)"/>
<path d="" fill="#3A3C3B" transform="translate(0,0)"/>
<path d="" fill="#393C39" transform="translate(0,0)"/>
<path d="" fill="#383A37" transform="translate(0,0)"/>
<path d="" fill="#383838" transform="translate(0,0)"/>
<path d="" fill="#3D3D3C" transform="translate(0,0)"/>
<path d="" fill="#383737" transform="translate(0,0)"/>
<path d="" fill="#3C3B3A" transform="translate(0,0)"/>
<path d="" fill="#363636" transform="translate(0,0)"/>
<path d="" fill="#353637" transform="translate(0,0)"/>
<path d="" fill="#343434" transform="translate(0,0)"/>
<path d="" fill="#2E2C2D" transform="translate(0,0)"/>
<path d="" fill="#353535" transform="translate(0,0)"/>
<path d="" fill="#333133" transform="translate(0,0)"/>
<path d="" fill="#333331" transform="translate(0,0)"/>
<path d="" fill="#333131" transform="translate(0,0)"/>
<path d="" fill="#2D302E" transform="translate(0,0)"/>
<path d="" fill="#2B2C2B" transform="translate(0,0)"/>
<path d="" fill="#2E3030" transform="translate(0,0)"/>
<path d="" fill="#292927" transform="translate(0,0)"/>
<path d="" fill="#313030" transform="translate(0,0)"/>
<path d="" fill="#2D2C29" transform="translate(0,0)"/>
<path d="" fill="#2B2A29" transform="translate(0,0)"/>
<path d="" fill="#2B2A2A" transform="translate(0,0)"/>
<path d="" fill="#252623" transform="translate(0,0)"/>
<path d="" fill="#2F302D" transform="translate(0,0)"/>
<path d="" fill="#313332" transform="translate(0,0)"/>
<path d="" fill="#2B2D2D" transform="translate(0,0)"/>
<path d="" fill="#2C2E2C" transform="translate(0,0)"/>
<path d="" fill="#2B2D2C" transform="translate(0,0)"/>
<path d="" fill="#393739" transform="translate(0,0)"/>
<path d="" fill="#2B2B29" transform="translate(0,0)"/>
<path d="" fill="#2D2D2E" transform="translate(0,0)"/>
<path d="" fill="#323232" transform="translate(0,0)"/>
<path d="" fill="#2E2E2E" transform="translate(0,0)"/>
<path d="" fill="#393939" transform="translate(0,0)"/>
<path d="" fill="#393B3A" transform="translate(0,0)"/>
<path d="" fill="#383738" transform="translate(0,0)"/>
<path d="" fill="#383837" transform="translate(0,0)"/>
<path d="" fill="#3D3D3D" transform="translate(0,0)"/>
<path d="" fill="#3A373B" transform="translate(0,0)"/>
<path d="" fill="#3A393A" transform="translate(0,0)"/>
<path d="" fill="#3A3D39" transform="translate(0,0)"/>
<path d="" fill="#393939" transform="translate(0,0)"/>
<path d="" fill="#353636" transform="translate(0,0)"/>
<path d="" fill="#343633" transform="translate(0,0)"/>
<path d="" fill="#363636" transform="translate(0,0)"/>
<path d="" fill="#393B38" transform="translate(0,0)"/>
<path d="" fill="#3A3939" transform="translate(0,0)"/>
<path d="" fill="#393A39" transform="translate(0,0)"/>
<path d="" fill="#3F3D3C" transform="translate(0,0)"/>
<path d="" fill="#3A3837" transform="translate(0,0)"/>
<path d="" fill="#37393A" transform="translate(0,0)"/>
<path d="" fill="#3C3B3C" transform="translate(0,0)"/>
<path d="" fill="#383636" transform="translate(0,0)"/>
<path d="" fill="#3B3C3C" transform="translate(0,0)"/>
<path d="" fill="#363838" transform="translate(0,0)"/>
<path d="" fill="#373535" transform="translate(0,0)"/>
<path d="" fill="#343434" transform="translate(0,0)"/>
<path d="" fill="#3C393E" transform="translate(0,0)"/>
<path d="" fill="#373634" transform="translate(0,0)"/>
<path d="" fill="#363738" transform="translate(0,0)"/>
<path d="" fill="#393737" transform="translate(0,0)"/>
<path d="" fill="#3E3D3B" transform="translate(0,0)"/>
<path d="" fill="#363836" transform="translate(0,0)"/>
<path d="" fill="#3E3C3C" transform="translate(0,0)"/>
<path d="" fill="#373736" transform="translate(0,0)"/>
<path d="" fill="#363735" transform="translate(0,0)"/>
<path d="" fill="#363635" transform="translate(0,0)"/>
<path d="" fill="#373437" transform="translate(0,0)"/>
<path d="" fill="#353533" transform="translate(0,0)"/>
<path d="" fill="#353132" transform="translate(0,0)"/>
<path d="" fill="#353533" transform="translate(0,0)"/>
<path d="" fill="#313333" transform="translate(0,0)"/>
<path d="" fill="#3C3C3B" transform="translate(0,0)"/>
<path d="" fill="#3C3D3A" transform="translate(0,0)"/>
<path d="" fill="#3B3937" transform="translate(0,0)"/>
<path d="" fill="#3A3938" transform="translate(0,0)"/>
<path d="" fill="#353736" transform="translate(0,0)"/>
<path d="" fill="#373A39" transform="translate(0,0)"/>
<path d="" fill="#343234" transform="translate(0,0)"/>
<path d="" fill="#373634" transform="translate(0,0)"/>
<path d="" fill="#343535" transform="translate(0,0)"/>
<path d="" fill="#313231" transform="translate(0,0)"/>
<path d="" fill="#383938" transform="translate(0,0)"/>
<path d="" fill="#393B39" transform="translate(0,0)"/>
<path d="" fill="#424140" transform="translate(0,0)"/>
<path d="" fill="#323130" transform="translate(0,0)"/>
<path d="" fill="#3B3C39" transform="translate(0,0)"/>
<path d="" fill="#322E31" transform="translate(0,0)"/>
<path d="" fill="#353534" transform="translate(0,0)"/>
<path d="" fill="#2C2C29" transform="translate(0,0)"/>
<path d="" fill="#323233" transform="translate(0,0)"/>
<path d="" fill="#2F302E" transform="translate(0,0)"/>
<path d="" fill="#2C2D2E" transform="translate(0,0)"/>
<path d="" fill="#2B2B2B" transform="translate(0,0)"/>
<path d="" fill="#2D2D2F" transform="translate(0,0)"/>
<path d="" fill="#2B2B2A" transform="translate(0,0)"/>
<path d="" fill="#2F302E" transform="translate(0,0)"/>
<path d="" fill="#343332" transform="translate(0,0)"/>
<path d="" fill="#323333" transform="translate(0,0)"/>
<path d="" fill="#2D2D2D" transform="translate(0,0)"/>
<path d="" fill="#2B2928" transform="translate(0,0)"/>
<path d="" fill="#302E2E" transform="translate(0,0)"/>
<path d="" fill="#2F302E" transform="translate(0,0)"/>
<path d="" fill="#2E2F2F" transform="translate(0,0)"/>
<path d="" fill="#2B2C2A" transform="translate(0,0)"/>
<path d="" fill="#2C2C2E" transform="translate(0,0)"/>
<path d="" fill="#2B2A2C" transform="translate(0,0)"/>
<path d="" fill="#2E2E2C" transform="translate(0,0)"/>
<path d="" fill="#2B2B2D" transform="translate(0,0)"/>
<path d="" fill="#2F312F" transform="translate(0,0)"/>
<path d="" fill="#282A2A" transform="translate(0,0)"/>
<path d="" fill="#2D2A2E" transform="translate(0,0)"/>
<path d="" fill="#2C2A2A" transform="translate(0,0)"/>
<path d="" fill="#2C2C2D" transform="translate(0,0)"/>
<path d="" fill="#2E2E2E" transform="translate(0,0)"/>
<path d="" fill="#333031" transform="translate(0,0)"/>
<path d="" fill="#313031" transform="translate(0,0)"/>
<path d="" fill="#343635" transform="translate(0,0)"/>
<path d="" fill="#2C2C2C" transform="translate(0,0)"/>
<path d="" fill="#353332" transform="translate(0,0)"/>
<path d="" fill="#343435" transform="translate(0,0)"/>
<path d="" fill="#353435" transform="translate(0,0)"/>
<path d="" fill="#2F2E2D" transform="translate(0,0)"/>
<path d="" fill="#373735" transform="translate(0,0)"/>
<path d="" fill="#373835" transform="translate(0,0)"/>
<path d="" fill="#323032" transform="translate(0,0)"/>
<path d="" fill="#302F2F" transform="translate(0,0)"/>
<path d="" fill="#3A3939" transform="translate(0,0)"/>
<path d="" fill="#3C3A37" transform="translate(0,0)"/>
<path d="" fill="#3B3B39" transform="translate(0,0)"/>
<path d="" fill="#393937" transform="translate(0,0)"/>
<path d="" fill="#363636" transform="translate(0,0)"/>
<path d="" fill="#3D3B3A" transform="translate(0,0)"/>
<path d="" fill="#373635" transform="translate(0,0)"/>
<path d="" fill="#393838" transform="translate(0,0)"/>
</svg>
